<svg
xmlns="http://www.w3.org/2000/svg" 
xmlns:xlink="http://www.w3.org/1999/xlink" >

<symbol id="growth">
<path style="fill:#8F96AC;" d="M370.759,238.345c-2.526,0-4.952-1.086-6.643-3.012l-54.987-62.845l-37.522,45.026
	c-3.121,3.746-8.685,4.25-12.431,1.129c-3.746-3.122-4.25-8.685-1.129-12.431l44.138-52.966c1.651-1.983,4.09-3.147,6.673-3.177
	c2.81-0.116,5.052,1.069,6.75,3.012l52.836,60.384l47.263-102.406c2.047-4.431,7.288-6.354,11.715-4.319
	c4.427,2.044,6.358,7.288,4.319,11.715l-52.966,114.759c-1.255,2.716-3.797,4.612-6.759,5.038
	C371.6,238.315,371.177,238.345,370.759,238.345z"/>
<rect x="189.263" y="266.19" transform="matrix(0.7071 0.7071 -0.7071 0.7071 277.0252 -55.2723)" style="fill:#D7DEED;" width="31.939" height="81.147"/>
<path style="fill:#C7CFE2;" d="M202.44,286.975c6.869,8.161,14.423,15.716,22.584,22.585l20.2-20.2l-22.584-22.585L202.44,286.975z"
	/>
<path style="fill:#D7DEED;" d="M344.276,0c-92.631,0-167.724,75.093-167.724,167.724s75.093,167.724,167.724,167.724
	S512,260.355,512,167.724S436.907,0,344.276,0z M344.276,308.966c-78.005,0-141.241-63.236-141.241-141.241
	c0-78.006,63.236-141.241,141.241-141.241c78.006,0,141.241,63.235,141.241,141.241
	C485.518,245.729,422.282,308.966,344.276,308.966z"/>
<path style="fill:#707487;" d="M23.9,506.83L5.172,488.106c-6.895-6.894-6.897-18.074-0.001-24.97L154.17,314.137
	c6.894-6.894,18.072-6.894,24.967-0.001l18.728,18.724c6.895,6.894,6.897,18.074,0.001,24.97L48.867,506.829
	C41.973,513.724,30.795,513.724,23.9,506.83z"/>
<path style="fill:#5B5D6E;" d="M22.826,480.791l148.999-148.999c6.894-6.894,18.071-6.895,24.967-0.001l1.092,1.091
	c0,0-0.011-0.015-0.019-0.022l-18.728-18.724c-6.895-6.893-18.072-6.893-24.967,0.001l-148.999,149
	c-6.895,6.895-6.895,18.074,0.001,24.969l17.641,17.638C15.933,498.848,15.935,487.681,22.826,480.791z"/>
<path style="fill:#C7CFE2;" d="M186.987,368.708l10.878-10.878c6.895-6.895,6.894-18.074-0.001-24.969l-18.728-18.724
	c-6.895-6.893-18.072-6.893-24.967,0.001l-10.876,10.877L186.987,368.708z"/>
<g style="opacity:0.97;">
	<path style="fill:#AFB9D2;" d="M160.947,342.669l10.877-10.877c6.894-6.894,18.071-6.895,24.967-0.001l1.09,1.09
		c-0.007-0.007-0.01-0.014-0.017-0.021l-18.728-18.724c-6.895-6.893-18.072-6.893-24.967,0.001l-10.876,10.877L160.947,342.669z"/>
</g>
<circle style="fill:#FF6464;" cx="264.828" cy="211.862" r="17.655"/>
<circle style="fill:#FFD782;" cx="308.966" cy="158.897" r="17.655"/>
<circle style="fill:#C3E678;" cx="370.759" cy="229.517" r="17.655"/>
<circle style="fill:#00D2FF;" cx="423.724" cy="114.759" r="17.655"/>
<g>
</g>
<g>
</g>
<g>
</g>
<g>
</g>
<g>
</g>
<g>
</g>
<g>
</g>
<g>
</g>
<g>
</g>
<g>
</g>
<g>
</g>
<g>
</g>
<g>
</g>
<g>
</g>
<g>
</g>
</symbol>


<symbol id="spinner">
<path 
		fill="#D43B11" 
		d="M10,40c0,0,0-0.4,0-1.1c0-0.3,0-0.8,0-1.3c0-0.3,0-0.5,0-0.8c0-0.3,0.1-0.6,0.1-0.9c0.1-0.6,0.1-1.4,0.2-2.1
		c0.2-0.8,0.3-1.6,0.5-2.5c0.2-0.9,0.6-1.8,0.8-2.8c0.3-1,0.8-1.9,1.2-3c0.5-1,1.1-2,1.7-3.1c0.7-1,1.4-2.1,2.2-3.1
		c1.6-2.1,3.7-3.9,6-5.6c2.3-1.7,5-3,7.9-4.1c0.7-0.2,1.5-0.4,2.2-0.7c0.7-0.3,1.5-0.3,2.3-0.5c0.8-0.2,1.5-0.3,2.3-0.4l1.2-0.1
		l0.6-0.1l0.3,0l0.1,0l0.1,0l0,0c0.1,0-0.1,0,0.1,0c1.5,0,2.9-0.1,4.5,0.2c0.8,0.1,1.6,0.1,2.4,0.3c0.8,0.2,1.5,0.3,2.3,0.5
		c3,0.8,5.9,2,8.5,3.6c2.6,1.6,4.9,3.4,6.8,5.4c1,1,1.8,2.1,2.7,3.1c0.8,1.1,1.5,2.1,2.1,3.2c0.6,1.1,1.2,2.1,1.6,3.1
		c0.4,1,0.9,2,1.2,3c0.3,1,0.6,1.9,0.8,2.7c0.2,0.9,0.3,1.6,0.5,2.4c0.1,0.4,0.1,0.7,0.2,1c0,0.3,0.1,0.6,0.1,0.9
		c0.1,0.6,0.1,1,0.1,1.4C74,39.6,74,40,74,40c0.2,2.2-1.5,4.1-3.7,4.3s-4.1-1.5-4.3-3.7c0-0.1,0-0.2,0-0.3l0-0.4c0,0,0-0.3,0-0.9
		c0-0.3,0-0.7,0-1.1c0-0.2,0-0.5,0-0.7c0-0.2-0.1-0.5-0.1-0.8c-0.1-0.6-0.1-1.2-0.2-1.9c-0.1-0.7-0.3-1.4-0.4-2.2
		c-0.2-0.8-0.5-1.6-0.7-2.4c-0.3-0.8-0.7-1.7-1.1-2.6c-0.5-0.9-0.9-1.8-1.5-2.7c-0.6-0.9-1.2-1.8-1.9-2.7c-1.4-1.8-3.2-3.4-5.2-4.9
		c-2-1.5-4.4-2.7-6.9-3.6c-0.6-0.2-1.3-0.4-1.9-0.6c-0.7-0.2-1.3-0.3-1.9-0.4c-1.2-0.3-2.8-0.4-4.2-0.5l-2,0c-0.7,0-1.4,0.1-2.1,0.1
		c-0.7,0.1-1.4,0.1-2,0.3c-0.7,0.1-1.3,0.3-2,0.4c-2.6,0.7-5.2,1.7-7.5,3.1c-2.2,1.4-4.3,2.9-6,4.7c-0.9,0.8-1.6,1.8-2.4,2.7
		c-0.7,0.9-1.3,1.9-1.9,2.8c-0.5,1-1,1.9-1.4,2.8c-0.4,0.9-0.8,1.8-1,2.6c-0.3,0.9-0.5,1.6-0.7,2.4c-0.2,0.7-0.3,1.4-0.4,2.1
		c-0.1,0.3-0.1,0.6-0.2,0.9c0,0.3-0.1,0.6-0.1,0.8c0,0.5-0.1,0.9-0.1,1.3C10,39.6,10,40,10,40z"
	>
		<animateTransform
			attributeType="xml"
			attributeName="transform"
			type="rotate"
			from="0 40 40"
			to="360 40 40"
			dur="0.8s"
			repeatCount="indefinite"
		/>
	</path>
	<path 
		fill="#D43B11" 
		d="M62,40.1c0,0,0,0.2-0.1,0.7c0,0.2,0,0.5-0.1,0.8c0,0.2,0,0.3,0,0.5c0,0.2-0.1,0.4-0.1,0.7
		c-0.1,0.5-0.2,1-0.3,1.6c-0.2,0.5-0.3,1.1-0.5,1.8c-0.2,0.6-0.5,1.3-0.7,1.9c-0.3,0.7-0.7,1.3-1,2.1c-0.4,0.7-0.9,1.4-1.4,2.1
		c-0.5,0.7-1.1,1.4-1.7,2c-1.2,1.3-2.7,2.5-4.4,3.6c-1.7,1-3.6,1.8-5.5,2.4c-2,0.5-4,0.7-6.2,0.7c-1.9-0.1-4.1-0.4-6-1.1
		c-1.9-0.7-3.7-1.5-5.2-2.6c-1.5-1.1-2.9-2.3-4-3.7c-0.6-0.6-1-1.4-1.5-2c-0.4-0.7-0.8-1.4-1.2-2c-0.3-0.7-0.6-1.3-0.8-2
		c-0.2-0.6-0.4-1.2-0.6-1.8c-0.1-0.6-0.3-1.1-0.4-1.6c-0.1-0.5-0.1-1-0.2-1.4c-0.1-0.9-0.1-1.5-0.1-2c0-0.5,0-0.7,0-0.7
		s0,0.2,0.1,0.7c0.1,0.5,0,1.1,0.2,2c0.1,0.4,0.2,0.9,0.3,1.4c0.1,0.5,0.3,1,0.5,1.6c0.2,0.6,0.4,1.1,0.7,1.8
		c0.3,0.6,0.6,1.2,0.9,1.9c0.4,0.6,0.8,1.3,1.2,1.9c0.5,0.6,1,1.3,1.6,1.8c1.1,1.2,2.5,2.3,4,3.2c1.5,0.9,3.2,1.6,5,2.1
		c1.8,0.5,3.6,0.6,5.6,0.6c1.8-0.1,3.7-0.4,5.4-1c1.7-0.6,3.3-1.4,4.7-2.4c1.4-1,2.6-2.1,3.6-3.3c0.5-0.6,0.9-1.2,1.3-1.8
		c0.4-0.6,0.7-1.2,1-1.8c0.3-0.6,0.6-1.2,0.8-1.8c0.2-0.6,0.4-1.1,0.5-1.7c0.1-0.5,0.2-1,0.3-1.5c0.1-0.4,0.1-0.8,0.1-1.2
		c0-0.2,0-0.4,0.1-0.5c0-0.2,0-0.4,0-0.5c0-0.3,0-0.6,0-0.8c0-0.5,0-0.7,0-0.7c0-1.1,0.9-2,2-2s2,0.9,2,2C62,40,62,40.1,62,40.1z"
	>
		<animateTransform
			attributeType="xml"
			attributeName="transform"
			type="rotate"
			from="0 40 40"
			to="-360 40 40"
			dur="0.6s"
			repeatCount="indefinite"
		/>
	</path>
</symbol>

</svg>
